<svg aria-hidden="true" style="position: absolute; width: 0; height: 0; overflow: hidden;" version="1.1" xmlns="http://www.w3.org/2000/svg" xmlns:xlink="http://www.w3.org/1999/xlink">
<defs>
<symbol id="icon-trash" viewBox="0 0 20 20">
<title>trash</title>
<path d="M3.389 7.113l1.101 10.908c0.061 0.461 2.287 1.977 5.51 1.979 3.225-0.002 5.451-1.518 5.511-1.979l1.102-10.908c-1.684 0.942-4.201 1.387-6.613 1.387-2.41 0-4.928-0.445-6.611-1.387zM13.168 1.51l-0.859-0.951c-0.332-0.473-0.692-0.559-1.393-0.559h-1.831c-0.7 0-1.061 0.086-1.392 0.559l-0.859 0.951c-2.57 0.449-4.434 1.64-4.434 2.519v0.17c0 1.547 3.403 2.801 7.6 2.801 4.198 0 7.601-1.254 7.601-2.801v-0.17c0-0.879-1.863-2.070-4.433-2.519zM12.070 4.34l-1.070-1.34h-2l-1.068 1.34h-1.7c0 0 1.862-2.221 2.111-2.522 0.19-0.23 0.384-0.318 0.636-0.318h2.043c0.253 0 0.447 0.088 0.637 0.318 0.248 0.301 2.111 2.522 2.111 2.522h-1.7z"></path>
</symbol>
<symbol id="icon-cross" viewBox="0 0 20 20">
<title>cross</title>
<path d="M14.348 14.849c-0.469 0.469-1.229 0.469-1.697 0l-2.651-3.030-2.651 3.029c-0.469 0.469-1.229 0.469-1.697 0-0.469-0.469-0.469-1.229 0-1.697l2.758-3.15-2.759-3.152c-0.469-0.469-0.469-1.228 0-1.697s1.228-0.469 1.697 0l2.652 3.031 2.651-3.031c0.469-0.469 1.228-0.469 1.697 0s0.469 1.229 0 1.697l-2.758 3.152 2.758 3.15c0.469 0.469 0.469 1.229 0 1.698z"></path>
</symbol>
<symbol id="icon-heart-outlined" viewBox="0 0 20 20">
<title>heart-outlined</title>
<path d="M17.19 4.156c-1.672-1.535-4.383-1.535-6.055 0l-1.135 1.041-1.136-1.041c-1.672-1.535-4.382-1.535-6.054 0-1.881 1.726-1.881 4.519 0 6.245l7.19 6.599 7.19-6.599c1.88-1.726 1.88-4.52 0-6.245zM16.124 9.375l-6.124 5.715-6.125-5.715c-0.617-0.567-0.856-1.307-0.856-2.094s0.138-1.433 0.756-1.999c0.545-0.501 1.278-0.777 2.063-0.777s1.517 0.476 2.062 0.978l2.1 1.825 2.099-1.826c0.546-0.502 1.278-0.978 2.063-0.978s1.518 0.276 2.063 0.777c0.618 0.566 0.755 1.212 0.755 1.999s-0.238 1.528-0.856 2.095z"></path>
</symbol>
<symbol id="icon-heart" viewBox="0 0 20 20">
<title>heart</title>
<path d="M17.19 4.155c-1.672-1.534-4.383-1.534-6.055 0l-1.135 1.042-1.136-1.042c-1.672-1.534-4.382-1.534-6.054 0-1.881 1.727-1.881 4.52 0 6.246l7.19 6.599 7.19-6.599c1.88-1.726 1.88-4.52 0-6.246z"></path>
</symbol>
<symbol id="icon-home" viewBox="0 0 20 20">
<title>home</title>
<path d="M18.672 11h-1.672v6c0 0.445-0.194 1-1 1h-4v-6h-4v6h-4c-0.806 0-1-0.555-1-1v-6h-1.672c-0.598 0-0.47-0.324-0.060-0.748l8.024-8.032c0.195-0.202 0.451-0.302 0.708-0.312 0.257 0.010 0.513 0.109 0.708 0.312l8.023 8.031c0.411 0.425 0.539 0.749-0.059 0.749z"></path>
</symbol>
<symbol id="icon-info-with-circle" viewBox="0 0 20 20">
<title>info-with-circle</title>
<path d="M10 0.4c-5.303 0-9.601 4.298-9.601 9.6 0 5.303 4.298 9.601 9.601 9.601 5.301 0 9.6-4.298 9.6-9.601s-4.299-9.6-9.6-9.6zM10.896 3.866c0.936 0 1.211 0.543 1.211 1.164 0 0.775-0.62 1.492-1.679 1.492-0.886 0-1.308-0.445-1.282-1.182 0-0.621 0.519-1.474 1.75-1.474zM8.498 15.75c-0.64 0-1.107-0.389-0.66-2.094l0.733-3.025c0.127-0.484 0.148-0.678 0-0.678-0.191 0-1.022 0.334-1.512 0.664l-0.319-0.523c1.555-1.299 3.343-2.061 4.108-2.061 0.64 0 0.746 0.756 0.427 1.92l-0.84 3.18c-0.149 0.562-0.085 0.756 0.064 0.756 0.192 0 0.82-0.232 1.438-0.719l0.362 0.486c-1.513 1.512-3.162 2.094-3.801 2.094z"></path>
</symbol>
<symbol id="icon-key" viewBox="0 0 20 20">
<title>key</title>
<path d="M17.691 4.725c-0.503-2.977-3.22-4.967-6.069-4.441s-5.256 2.816-4.753 5.795c0.107 0.641 0.408 1.644 0.763 2.365l-5.175 7.723c-0.191 0.285-0.299 0.799-0.242 1.141l0.333 1.971c0.058 0.342 0.372 0.572 0.7 0.514l1.516-0.281c0.328-0.059 0.744-0.348 0.924-0.639l2.047-3.311 0.018-0.022 1.386-0.256 2.39-3.879c0.785 0.139 1.912 0.092 2.578-0.031 2.848-0.526 4.087-3.67 3.584-6.649zM15.166 6.252c-0.784 1.17-1.584 0.346-2.703-0.475-1.119-0.818-2.135-1.322-1.352-2.492s2.326-1.455 3.447-0.635c1.12 0.819 1.391 2.432 0.608 3.602z"></path>
</symbol>
<symbol id="icon-light-bulb" viewBox="0 0 20 20">
<title>light-bulb</title>
<path d="M7.186 19.172c0.789 0.51 1.701 0.855 2.814 0.828 1.111 0.027 2.025-0.318 2.814-0.828l-0.017-2.172h-5.594l-0.017 2.172zM12.697 16c0-4.357 4.63-5.848 4.283-10.188-0.218-2.738-2.073-5.81-6.98-5.81s-6.762 3.072-6.981 5.811c-0.347 4.339 4.284 5.83 4.284 10.187h5.394zM5 6c0.207-2.598 2.113-4 5-4s4.654 1.371 4.861 3.969c0.113 1.424-0.705 2.373-1.809 3.926-0.814 1.146-1.603 2.343-2.052 4.105h-2c-0.449-1.762-1.238-2.959-2.053-4.106-1.103-1.552-2.061-2.47-1.947-3.894z"></path>
</symbol>
<symbol id="icon-lock" viewBox="0 0 20 20">
<title>lock</title>
<path d="M15.8 8h-1.8v-2.4c0-2.897-1.335-4.6-4-4.6s-4 1.703-4 4.6v2.4h-2c-0.553 0-1 0.646-1 1.199v7.801c0 0.549 0.428 1.139 0.951 1.307l1.197 0.387c0.524 0.167 1.402 0.306 1.952 0.306h5.8c0.549 0 1.428-0.139 1.951-0.307l1.196-0.387c0.524-0.167 0.953-0.757 0.953-1.306v-7.801c0-0.553-0.648-1.199-1.2-1.199zM12 8h-4v-2.801c0-1.445 0.797-2.199 2-2.199s2 0.754 2 2.199v2.801z"></path>
</symbol>
<symbol id="icon-magnifying-glass" viewBox="0 0 20 20">
<title>magnifying-glass</title>
<path d="M17.545 15.467l-3.779-3.779c0.57-0.935 0.898-2.035 0.898-3.21 0-3.417-2.961-6.377-6.378-6.377s-6.186 2.769-6.186 6.186c0 3.416 2.961 6.377 6.377 6.377 1.137 0 2.2-0.309 3.115-0.844l3.799 3.801c0.372 0.371 0.975 0.371 1.346 0l0.943-0.943c0.371-0.371 0.236-0.84-0.135-1.211zM4.004 8.287c0-2.366 1.917-4.283 4.282-4.283s4.474 2.107 4.474 4.474c0 2.365-1.918 4.283-4.283 4.283s-4.473-2.109-4.473-4.474z"></path>
</symbol>
<symbol id="icon-mask" viewBox="0 0 20 20">
<title>mask</title>
<path d="M19.581 5.84c-0.043-0.469-0.462-0.803-0.92-0.73-1.742 0.278-5.826 1.89-8.661 1.89s-6.919-1.612-8.661-1.89c-0.458-0.073-0.876 0.26-0.92 0.729-0.142 1.532-0.419 5.611-0.419 6.229 0 0.83 3.472 2.732 6 2.732 2.452 0 2.95-2.732 4-2.732s1.548 2.732 4 2.732c2.528 0 6-1.902 6-2.732 0-0.618-0.277-4.697-0.419-6.228zM7.66 10.72c-0.353 0.318-1.335 1.070-2.531 0.835s-1.919-1.323-2.166-1.758c-0.060-0.106-0.041-0.24 0.044-0.317 0.353-0.318 1.335-1.070 2.532-0.835s1.919 1.323 2.166 1.758c0.059 0.106 0.040 0.24-0.045 0.317zM17.037 9.797c-0.246 0.436-0.969 1.523-2.166 1.758s-2.179-0.517-2.531-0.835c-0.086-0.077-0.104-0.211-0.045-0.317 0.246-0.436 0.969-1.523 2.166-1.758s2.179 0.517 2.531 0.835c0.086 0.077 0.105 0.211 0.045 0.317z"></path>
</symbol>
<symbol id="icon-new-message" viewBox="0 0 20 20">
<title>new-message</title>
<path d="M18.174 1.826c-1.102-1.102-2.082-0.777-2.082-0.777l-8.639 8.632-1.453 4.319 4.317-1.454 8.634-8.638c0 0 0.324-0.98-0.777-2.082zM10.605 11.605l-0.471 0.47-1.473 0.5c-0.104-0.24-0.234-0.477-0.498-0.74s-0.5-0.394-0.74-0.498l0.5-1.473 0.471-0.47c0 0 0.776-0.089 1.537 0.673 0.762 0.761 0.674 1.538 0.674 1.538zM16 17h-13v-13h5l2-2h-7c-1.1 0-2 0.9-2 2v13c0 1.1 0.9 2 2 2h13c1.1 0 2-0.9 2-2v-7l-2 2v5z"></path>
</symbol>
<symbol id="icon-squared-cross" viewBox="0 0 20 20">
<title>squared-cross</title>
<path d="M16 2h-12c-1.1 0-2 0.9-2 2v12c0 1.1 0.9 2 2 2h12c1.1 0 2-0.9 2-2v-12c0-1.1-0.9-2-2-2zM13.061 14.789l-3.061-3.060-3.061 3.060-1.729-1.728 3.061-3.061-3.060-3.061 1.729-1.729 3.060 3.061 3.059-3.061 1.729 1.729-3.059 3.061 3.060 3.061-1.728 1.728z"></path>
</symbol>
<symbol id="icon-squared-plus" viewBox="0 0 20 20">
<title>squared-plus</title>
<path d="M16 2h-12c-1.1 0-2 0.9-2 2v12c0 1.1 0.9 2 2 2h12c1.1 0 2-0.9 2-2v-12c0-1.1-0.9-2-2-2zM15 11h-4v4h-2v-4h-4v-2h4v-4h2v4h4v2z"></path>
</symbol>
<symbol id="icon-star-outlined" viewBox="0 0 20 20">
<title>star-outlined</title>
<path d="M18.8 8.022h-6.413l-2.387-6.722-2.389 6.722h-6.412l5.232 3.947-1.871 6.929 5.44-4.154 5.438 4.154-1.869-6.929 5.231-3.947zM10 12.783l-3.014 2.5 1.243-3.562-2.851-2.3 3.522 0.101 1.1-4.040 1.099 4.040 3.521-0.101-2.851 2.3 1.243 3.562-3.012-2.5z"></path>
</symbol>
<symbol id="icon-star" viewBox="0 0 20 20">
<title>star</title>
<path d="M10 1.3l2.388 6.722h6.412l-5.232 3.948 1.871 6.928-5.439-4.154-5.438 4.154 1.87-6.928-5.233-3.948h6.412l2.389-6.722z"></path>
</symbol>
<symbol id="icon-text" viewBox="0 0 20 20">
<title>hamburger-menu</title>
<path d="M15.5 11h-11c-0.275 0-0.5 0.225-0.5 0.5v1c0 0.276 0.225 0.5 0.5 0.5h11c0.276 0 0.5-0.224 0.5-0.5v-1c0-0.275-0.224-0.5-0.5-0.5zM15.5 7h-11c-0.275 0-0.5 0.225-0.5 0.5v1c0 0.276 0.225 0.5 0.5 0.5h11c0.276 0 0.5-0.224 0.5-0.5v-1c0-0.275-0.224-0.5-0.5-0.5zM10.5 15h-6c-0.275 0-0.5 0.225-0.5 0.5v1c0 0.276 0.225 0.5 0.5 0.5h6c0.276 0 0.5-0.224 0.5-0.5v-1c0-0.275-0.224-0.5-0.5-0.5zM15.5 3h-11c-0.275 0-0.5 0.225-0.5 0.5v1c0 0.276 0.225 0.5 0.5 0.5h11c0.276 0 0.5-0.224 0.5-0.5v-1c0-0.275-0.224-0.5-0.5-0.5z"></path>
</symbol>
<symbol id="icon-user" viewBox="0 0 20 20">
<title>user</title>
<path d="M7.725 2.146c-1.016 0.756-1.289 1.953-1.239 2.59 0.064 0.779 0.222 1.793 0.222 1.793s-0.313 0.17-0.313 0.854c0.109 1.717 0.683 0.976 0.801 1.729 0.284 1.814 0.933 1.491 0.933 2.481 0 1.649-0.68 2.42-2.803 3.334-2.13 0.918-4.326 2.073-4.326 4.073v1h18v-1c0-2-2.197-3.155-4.328-4.072-2.123-0.914-2.801-1.684-2.801-3.334 0-0.99 0.647-0.667 0.932-2.481 0.119-0.753 0.692-0.012 0.803-1.729 0-0.684-0.314-0.854-0.314-0.854s0.158-1.014 0.221-1.793c0.065-0.817-0.398-2.561-2.3-3.096-0.333-0.34-0.558-0.881 0.466-1.424-2.24-0.105-2.761 1.067-3.954 1.929z"></path>
</symbol>
<symbol id="icon-rooster" viewBox="0 0 50 50">
    <circle cx="25.45" cy="24.579" r="23.45" fill="#f77c93" fill-opacity=".72449" stroke-width=".11902"/>
    <path d="m26.232 51.965c-4.8915-0.25207-9.8038-2.1319-13.76-5.2657-1.138-0.90138-3.3147-3.1342-4.1734-4.2809-2.7069-3.6149-4.2727-7.4994-4.8154-11.946-0.20425-1.6736-0.13656-5.0643 0.13233-6.6282 0.75735-4.4048 2.4867-8.2412 5.2179-11.575 0.92375-1.1277 2.758-2.9325 3.8156-3.7543 3.507-2.7251 7.5859-4.4241 11.999-4.9979 1.386-0.18022 4.4589-0.20409 5.7435-0.0446 1.4174 0.17597 3.3618 0.59343 4.5775 0.98277 11.624 3.7228 18.694 15.266 16.695 27.256-1.6729 10.033-9.5257 18.027-19.547 19.9-1.7568 0.3283-3.892 0.45678-5.8846 0.3541z" fill="none" stroke-width=".08849"/>
    <ellipse cx="6.6038" cy="-211.2" rx="322.64" ry="351.89" fill="none"/>
    <path d="m13.356 27.766c-1.5986-0.80613-2.0706-2.8583-0.96082-4.1773 1.0637-1.2642 2.161-1.3773 4.3131-0.44469 0.81311 0.35236 1.542 0.64067 1.6199 0.64067 0.0778 0 0.0221-0.28566-0.12376-0.63479-0.81347-1.9469 0.45461-3.9414 2.5059-3.9414 0.70474 0 1.2403 0.18397 2.6118 0.89716l1.7253 0.89714 0.119-0.47412c0.32091-1.2786 1.3807-2.0524 2.8111-2.0524 0.77856 0 1.0532 0.10989 1.9768 0.79096 1.9046 1.4044 3.4459 3.2583 4.5611 5.486 0.55361 1.1059 0.96779 2.0495 0.92039 2.0969s-0.31744-0.0771-0.60009-0.2767c-2.0123-1.4209-5.1093-2.4272-7.8745-2.5587-3.6588-0.17397-6.7629 0.73255-9.742 2.845-1.1301 0.80137-2.1677 1.2929-2.7651 1.3099-0.15485 4e-3 -0.64907-0.1773-1.0983-0.40382z" fill="#ff1639" stroke-width=".18305"/>
    <path d="m16.295 34.447c-0.95414-0.47938-1.468-1.3674-1.468-2.5368 0-0.8729 0.0799-1.0708 0.77796-1.9264 1.639-2.009 4.5806-3.8092 7.4753-4.5749 1.1993-0.31721 2.0456-0.4072 3.8278-0.40704 3.3539 3.1e-4 5.5271 0.62277 8.2371 2.3594 1.2938 0.82904 3.6328 2.9088 3.4661 3.082-0.0568 0.0591-0.68479-0.13696-1.3955-0.43557-2.0322-0.85386-3.5585-1.1495-6.0062-1.1633-2.6001-0.0147-4.2168 0.32456-6.4384 1.3511-1.8048 0.83396-2.7108 1.4424-4.3215 2.902-1.9126 1.7333-2.8106 2.025-4.1549 1.3496z" fill="#375aff" stroke-width=".18305"/>
    <g fill="#fff" stroke-width=".18305">
    <path d="m23.045 18.279c-0.86049-0.38537-1.4619-0.5254-2.2728-0.52917l-1.1026-5e-3 -0.51054-1.3729c-0.36711-0.98715-0.60007-1.3729-0.82919-1.3729-0.59341 0-2.1886-0.92969-2.6635-1.5523-0.66621-0.87344-0.87001-1.4985-0.87292-2.6772-4e-3 -1.5752 0.83431-2.9203 2.2845-3.6661 0.53974-0.27758 0.98851-0.34524 2.0135-0.30357l1.319 0.0536 0.092 1.6474c0.0997 1.7839 0.28907 2.2764 1.3375 3.4779 0.88335 1.0123 0.98465 0.74161 0.16349-0.43686-0.6349-0.91116-0.67583-1.0527-0.64651-2.2364 0.0465-1.8763 0.93441-3.0775 2.6915-3.6409 1.2936-0.4148 3.2176 0.15847 4.2092 1.2541l0.34182 0.37771 0.74134-0.37821c1.9711-1.0056 4.6327-0.0946 5.6076 1.9194 1.0841 2.2395-0.133 4.9778-2.5809 5.8065-0.94743 0.32073-0.98536 0.36086-1.4786 1.5643-0.27841 0.67933-0.5389 1.2678-0.57886 1.3078-0.04 0.04-0.32332-0.057-0.62971-0.21542-0.75908-0.39254-2.7953-0.38097-3.6417 0.0207-0.35786 0.16982-0.91458 0.57269-1.2372 0.89527l-0.58652 0.58651z"/>
    <path d="m22.332 40.054c-1.5985-0.63739-2.3344-2.7182-1.4654-4.1435 1.0429-1.7105 4.4081-4.3687 6.5527-5.176 1.6444-0.61904 3.6733-1.0916 4.6867-1.0916h0.92927l-0.92272 0.62139c-2.7251 1.8352-5.1801 4.9776-6.094 7.8002-0.51834 1.6009-2.2787 2.5509-3.6866 1.9895z"/>
    <path d="m29.086 43.139c-0.74559-0.49809-1.2624-1.4531-1.2611-2.3302 2e-3 -1.1731 0.73352-3.7325 1.5456-5.4064 0.54456-1.1224 1.2396-2.154 2.1629-3.2101 1.184-1.3543 2.3305-2.3868 2.3305-2.0987 0 0.0512-0.21959 0.81497-0.48795 1.6974-0.42483 1.3968-0.48812 1.9242-0.48917 4.0756-5.5e-4 1.4088 0.0956 2.8112 0.22396 3.2622 0.74029 2.6006-0.2895 4.4258-2.4971 4.4258-0.63688 0-1.0903-0.12333-1.5277-0.41551z"/>
    </g>
</symbol>
    <symbol>
    <path d="m 41.03125,13.96875 c -9.236404,0 -18.474795,3.51082 -25.5,10.53125 -14.0456354,14.045635 -14.0456354,36.954365 0,51 14.045636,14.045637 36.954363,14.045637 51,0 0.797558,-0.797558 1.25,-1.930635 1.25,-3.0625 0.0048,-1.127089 -0.452442,-2.233692 -1.25,-3.03125 -0.79756,-0.802334 -1.930635,-1.28125 -3.0625,-1.28125 -1.127089,0 -2.233691,0.483692 -3.03125,1.28125 -10.750332,10.750332 -28.062168,10.750332 -38.8125,0 -10.750332,-10.750332 -10.750332,-28.062167 0,-38.8125 10.750332,-10.750331 28.062168,-10.750331 38.8125,0 0.792783,0.826214 1.921082,1.329423 3.0625,1.34375 1.146192,0.0096 2.286639,-0.469364 3.09375,-1.28125 0.807111,-0.807111 1.264327,-1.952332 1.25,-3.09375 -0.0096,-1.146192 -0.486287,-2.269717 -1.3125,-3.0625 -7.025206,-7.02043 -16.258822,-10.53125 -25.5,-10.53125 z m 36.03125,18.25 c -0.234015,0.0048 -0.4375,0.203485 -0.4375,0.4375 l 0,6.78125 -37.40625,0 c -0.386841,0 -0.719994,0.223004 -0.90625,0.5 -0.186257,0.272221 -0.25,0.615341 -0.25,0.96875 l 0,18.1875 c 0,0.358185 0.06374,0.696528 0.25,0.96875 0.186256,0.27222 0.519409,0.5 0.90625,0.5 l 37.40625,0 0,6.78125 c 0,0.176705 0.118873,0.339389 0.28125,0.40625 0.162378,0.06686 0.34458,0.03043 0.46875,-0.09375 l 17.5,-17.34375 c 0.167154,-0.167153 0.167154,-0.457846 0,-0.625 l -17.5,-17.34375 c -0.08119,-0.08119 -0.193106,-0.125 -0.3125,-0.125 z" style="" fill="#fff" fill-opacity="1" fill-rule="nonzero" stroke="none"/>
    </symbol>
</defs>
</svg>
